<mxfile host="app.diagrams.net" agent="Mozilla/5.0 (Windows NT 10.0; Win64; x64) AppleWebKit/537.36 (KHTML, like Gecko) Chrome/133.0.0.0 Safari/537.36" version="26.0.16">
  <diagram name="Page-1" id="vX34WiBe1mZTfaW6KMs4">
    <mxGraphModel dx="1050" dy="603" grid="1" gridSize="10" guides="1" tooltips="1" connect="1" arrows="1" fold="1" page="1" pageScale="1" pageWidth="850" pageHeight="1100" math="0" shadow="0">
      <root>
        <mxCell id="0" />
        <mxCell id="1" parent="0" />
        <mxCell id="IHoywnbNfSnQ8g_Yi9af-2" value="" style="endArrow=classic;html=1;rounded=0;" edge="1" parent="1">
          <mxGeometry width="50" height="50" relative="1" as="geometry">
            <mxPoint x="155" y="140" as="sourcePoint" />
            <mxPoint x="245" y="140" as="targetPoint" />
            <Array as="points" />
          </mxGeometry>
        </mxCell>
        <mxCell id="IHoywnbNfSnQ8g_Yi9af-3" value="" style="image;sketch=0;aspect=fixed;html=1;points=[];align=center;fontSize=12;image=img/lib/mscae/ResourceGroup.svg;" vertex="1" parent="1">
          <mxGeometry x="85" y="120" width="50" height="40" as="geometry" />
        </mxCell>
        <mxCell id="IHoywnbNfSnQ8g_Yi9af-4" value="" style="image;aspect=fixed;html=1;points=[];align=center;fontSize=12;image=img/lib/azure2/general/Resource_Group_List.svg;" vertex="1" parent="1">
          <mxGeometry x="235" y="130" width="38" height="37.44" as="geometry" />
        </mxCell>
        <mxCell id="IHoywnbNfSnQ8g_Yi9af-5" value="Create resource group&lt;div&gt;&lt;br&gt;&lt;/div&gt;" style="text;strokeColor=none;align=center;fillColor=none;html=1;verticalAlign=middle;whiteSpace=wrap;rounded=0;" vertex="1" parent="1">
          <mxGeometry x="80" y="170" width="60" height="30" as="geometry" />
        </mxCell>
        <mxCell id="IHoywnbNfSnQ8g_Yi9af-15" style="edgeStyle=entityRelationEdgeStyle;rounded=0;orthogonalLoop=1;jettySize=auto;html=1;startArrow=none;endArrow=none;segment=10;curved=1;sourcePerimeterSpacing=0;targetPerimeterSpacing=0;exitX=1;exitY=0.75;exitDx=0;exitDy=0;entryX=0;entryY=0.75;entryDx=0;entryDy=0;" edge="1" parent="1" source="IHoywnbNfSnQ8g_Yi9af-6" target="IHoywnbNfSnQ8g_Yi9af-13">
          <mxGeometry relative="1" as="geometry" />
        </mxCell>
        <mxCell id="IHoywnbNfSnQ8g_Yi9af-6" value="Create Adf" style="whiteSpace=wrap;html=1;rounded=1;arcSize=50;align=center;verticalAlign=middle;strokeWidth=1;autosize=1;spacing=4;treeFolding=1;treeMoving=1;newEdgeStyle={&quot;edgeStyle&quot;:&quot;entityRelationEdgeStyle&quot;,&quot;startArrow&quot;:&quot;none&quot;,&quot;endArrow&quot;:&quot;none&quot;,&quot;segment&quot;:10,&quot;curved&quot;:1,&quot;sourcePerimeterSpacing&quot;:0,&quot;targetPerimeterSpacing&quot;:0};" vertex="1" parent="1">
          <mxGeometry x="365" y="110" width="100" height="30" as="geometry" />
        </mxCell>
        <mxCell id="IHoywnbNfSnQ8g_Yi9af-7" value="" style="edgeStyle=entityRelationEdgeStyle;startArrow=none;endArrow=none;segment=10;curved=1;sourcePerimeterSpacing=0;targetPerimeterSpacing=0;rounded=0;exitX=1;exitY=0.433;exitDx=0;exitDy=0;exitPerimeter=0;" edge="1" parent="1" source="IHoywnbNfSnQ8g_Yi9af-4">
          <mxGeometry relative="1" as="geometry">
            <mxPoint x="313" y="295" as="sourcePoint" />
            <mxPoint x="365" y="120" as="targetPoint" />
            <Array as="points">
              <mxPoint x="330" y="160" />
              <mxPoint x="310" y="110" />
            </Array>
          </mxGeometry>
        </mxCell>
        <mxCell id="IHoywnbNfSnQ8g_Yi9af-18" style="edgeStyle=entityRelationEdgeStyle;rounded=0;orthogonalLoop=1;jettySize=auto;html=1;startArrow=none;endArrow=none;segment=10;curved=1;sourcePerimeterSpacing=0;targetPerimeterSpacing=0;exitX=1;exitY=0.5;exitDx=0;exitDy=0;entryX=0;entryY=0.5;entryDx=0;entryDy=0;" edge="1" parent="1" source="IHoywnbNfSnQ8g_Yi9af-9" target="IHoywnbNfSnQ8g_Yi9af-16">
          <mxGeometry relative="1" as="geometry" />
        </mxCell>
        <mxCell id="IHoywnbNfSnQ8g_Yi9af-9" value="Give Name region(Central India) version(V2)" style="whiteSpace=wrap;html=1;rounded=1;arcSize=50;align=center;verticalAlign=middle;strokeWidth=1;autosize=1;spacing=4;treeFolding=1;treeMoving=1;newEdgeStyle={&quot;edgeStyle&quot;:&quot;entityRelationEdgeStyle&quot;,&quot;startArrow&quot;:&quot;none&quot;,&quot;endArrow&quot;:&quot;none&quot;,&quot;segment&quot;:10,&quot;curved&quot;:1,&quot;sourcePerimeterSpacing&quot;:0,&quot;targetPerimeterSpacing&quot;:0};" vertex="1" parent="1">
          <mxGeometry x="495" y="80" width="150" height="30" as="geometry" />
        </mxCell>
        <mxCell id="IHoywnbNfSnQ8g_Yi9af-10" value="" style="edgeStyle=entityRelationEdgeStyle;startArrow=none;endArrow=none;segment=10;curved=1;sourcePerimeterSpacing=0;targetPerimeterSpacing=0;rounded=0;exitX=1;exitY=0.5;exitDx=0;exitDy=0;entryX=0;entryY=0.5;entryDx=0;entryDy=0;" edge="1" parent="1" source="IHoywnbNfSnQ8g_Yi9af-6" target="IHoywnbNfSnQ8g_Yi9af-9">
          <mxGeometry relative="1" as="geometry">
            <mxPoint x="473" y="385" as="sourcePoint" />
            <mxPoint x="525" y="210" as="targetPoint" />
          </mxGeometry>
        </mxCell>
        <mxCell id="IHoywnbNfSnQ8g_Yi9af-12" value="&lt;b&gt;Basic&lt;/b&gt;" style="text;strokeColor=none;align=center;fillColor=none;html=1;verticalAlign=middle;whiteSpace=wrap;rounded=0;" vertex="1" parent="1">
          <mxGeometry x="540" y="100" width="60" height="30" as="geometry" />
        </mxCell>
        <mxCell id="IHoywnbNfSnQ8g_Yi9af-19" style="edgeStyle=entityRelationEdgeStyle;rounded=0;orthogonalLoop=1;jettySize=auto;html=1;startArrow=none;endArrow=none;segment=10;curved=1;sourcePerimeterSpacing=0;targetPerimeterSpacing=0;exitX=1;exitY=0.5;exitDx=0;exitDy=0;entryX=0;entryY=0.5;entryDx=0;entryDy=0;" edge="1" parent="1" source="IHoywnbNfSnQ8g_Yi9af-13" target="IHoywnbNfSnQ8g_Yi9af-16">
          <mxGeometry relative="1" as="geometry" />
        </mxCell>
        <mxCell id="IHoywnbNfSnQ8g_Yi9af-13" value="Connect via public endpoint" style="whiteSpace=wrap;html=1;rounded=1;arcSize=50;align=center;verticalAlign=middle;strokeWidth=1;autosize=1;spacing=4;treeFolding=1;treeMoving=1;newEdgeStyle={&quot;edgeStyle&quot;:&quot;entityRelationEdgeStyle&quot;,&quot;startArrow&quot;:&quot;none&quot;,&quot;endArrow&quot;:&quot;none&quot;,&quot;segment&quot;:10,&quot;curved&quot;:1,&quot;sourcePerimeterSpacing&quot;:0,&quot;targetPerimeterSpacing&quot;:0};" vertex="1" parent="1">
          <mxGeometry x="485" y="140" width="190" height="30" as="geometry" />
        </mxCell>
        <mxCell id="IHoywnbNfSnQ8g_Yi9af-14" value="&lt;b&gt;Networking&lt;/b&gt;" style="text;strokeColor=none;align=center;fillColor=none;html=1;verticalAlign=middle;whiteSpace=wrap;rounded=0;" vertex="1" parent="1">
          <mxGeometry x="545" y="170" width="60" height="30" as="geometry" />
        </mxCell>
        <mxCell id="IHoywnbNfSnQ8g_Yi9af-16" value="Review and create" style="whiteSpace=wrap;html=1;rounded=1;arcSize=50;align=center;verticalAlign=middle;strokeWidth=1;autosize=1;spacing=4;treeFolding=1;treeMoving=1;newEdgeStyle={&quot;edgeStyle&quot;:&quot;entityRelationEdgeStyle&quot;,&quot;startArrow&quot;:&quot;none&quot;,&quot;endArrow&quot;:&quot;none&quot;,&quot;segment&quot;:10,&quot;curved&quot;:1,&quot;sourcePerimeterSpacing&quot;:0,&quot;targetPerimeterSpacing&quot;:0};" vertex="1" parent="1">
          <mxGeometry x="700" y="100" width="140" height="30" as="geometry" />
        </mxCell>
        <mxCell id="IHoywnbNfSnQ8g_Yi9af-20" value="&lt;b&gt;&lt;font style=&quot;font-size: 18px;&quot;&gt;Adf Created&lt;/font&gt;&lt;/b&gt;" style="text;strokeColor=none;align=center;fillColor=none;html=1;verticalAlign=middle;whiteSpace=wrap;rounded=0;" vertex="1" parent="1">
          <mxGeometry x="380" y="20" width="120" height="30" as="geometry" />
        </mxCell>
        <mxCell id="IHoywnbNfSnQ8g_Yi9af-21" value="" style="image;aspect=fixed;html=1;points=[];align=center;fontSize=12;image=img/lib/azure2/general/Resource_Group_List.svg;" vertex="1" parent="1">
          <mxGeometry x="100" y="290" width="38" height="37.44" as="geometry" />
        </mxCell>
        <mxCell id="IHoywnbNfSnQ8g_Yi9af-23" value="" style="edgeStyle=entityRelationEdgeStyle;startArrow=none;endArrow=none;segment=10;curved=1;sourcePerimeterSpacing=0;targetPerimeterSpacing=0;rounded=0;exitX=1;exitY=0.433;exitDx=0;exitDy=0;exitPerimeter=0;" edge="1" parent="1" source="IHoywnbNfSnQ8g_Yi9af-21">
          <mxGeometry relative="1" as="geometry">
            <mxPoint x="178" y="455" as="sourcePoint" />
            <mxPoint x="230" y="280" as="targetPoint" />
          </mxGeometry>
        </mxCell>
        <mxCell id="IHoywnbNfSnQ8g_Yi9af-24" value="" style="image;aspect=fixed;html=1;points=[];align=center;fontSize=12;image=img/lib/azure2/storage/Storage_Accounts.svg;" vertex="1" parent="1">
          <mxGeometry x="230" y="260" width="50" height="40" as="geometry" />
        </mxCell>
        <mxCell id="IHoywnbNfSnQ8g_Yi9af-25" value="Storage account&amp;nbsp;" style="text;strokeColor=none;align=center;fillColor=none;html=1;verticalAlign=middle;whiteSpace=wrap;rounded=0;" vertex="1" parent="1">
          <mxGeometry x="226.25" y="310" width="60" height="30" as="geometry" />
        </mxCell>
        <mxCell id="IHoywnbNfSnQ8g_Yi9af-32" value="" style="edgeStyle=entityRelationEdgeStyle;startArrow=none;endArrow=none;segment=10;curved=1;sourcePerimeterSpacing=0;targetPerimeterSpacing=0;rounded=0;exitX=1;exitY=0.433;exitDx=0;exitDy=0;exitPerimeter=0;" edge="1" parent="1">
          <mxGeometry relative="1" as="geometry">
            <mxPoint x="280" y="276" as="sourcePoint" />
            <mxPoint x="372" y="250" as="targetPoint" />
            <Array as="points">
              <mxPoint x="337" y="290" />
              <mxPoint x="317" y="240" />
            </Array>
          </mxGeometry>
        </mxCell>
        <mxCell id="IHoywnbNfSnQ8g_Yi9af-33" value="Account name region and resource group, Performance(standard) and Redundancy(local storage)&amp;nbsp;" style="whiteSpace=wrap;html=1;rounded=1;arcSize=50;align=center;verticalAlign=middle;strokeWidth=1;autosize=1;spacing=4;treeFolding=1;treeMoving=1;newEdgeStyle={&quot;edgeStyle&quot;:&quot;entityRelationEdgeStyle&quot;,&quot;startArrow&quot;:&quot;none&quot;,&quot;endArrow&quot;:&quot;none&quot;,&quot;segment&quot;:10,&quot;curved&quot;:1,&quot;sourcePerimeterSpacing&quot;:0,&quot;targetPerimeterSpacing&quot;:0};" vertex="1" parent="1">
          <mxGeometry x="370" y="230" width="207" height="40" as="geometry" />
        </mxCell>
        <mxCell id="IHoywnbNfSnQ8g_Yi9af-34" value="&lt;b&gt;Basic&lt;/b&gt;" style="text;strokeColor=none;align=center;fillColor=none;html=1;verticalAlign=middle;whiteSpace=wrap;rounded=0;" vertex="1" parent="1">
          <mxGeometry x="443.5" y="290" width="60" height="30" as="geometry" />
        </mxCell>
        <mxCell id="IHoywnbNfSnQ8g_Yi9af-35" style="edgeStyle=entityRelationEdgeStyle;rounded=0;orthogonalLoop=1;jettySize=auto;html=1;startArrow=none;endArrow=none;segment=10;curved=1;sourcePerimeterSpacing=0;targetPerimeterSpacing=0;entryX=0;entryY=0.5;entryDx=0;entryDy=0;exitX=1;exitY=0.5;exitDx=0;exitDy=0;" edge="1" parent="1" target="IHoywnbNfSnQ8g_Yi9af-36" source="IHoywnbNfSnQ8g_Yi9af-33">
          <mxGeometry relative="1" as="geometry">
            <mxPoint x="830" y="250" as="sourcePoint" />
            <mxPoint x="640" y="320" as="targetPoint" />
          </mxGeometry>
        </mxCell>
        <mxCell id="IHoywnbNfSnQ8g_Yi9af-36" value="Review and create" style="whiteSpace=wrap;html=1;rounded=1;arcSize=50;align=center;verticalAlign=middle;strokeWidth=1;autosize=1;spacing=4;treeFolding=1;treeMoving=1;newEdgeStyle={&quot;edgeStyle&quot;:&quot;entityRelationEdgeStyle&quot;,&quot;startArrow&quot;:&quot;none&quot;,&quot;endArrow&quot;:&quot;none&quot;,&quot;segment&quot;:10,&quot;curved&quot;:1,&quot;sourcePerimeterSpacing&quot;:0,&quot;targetPerimeterSpacing&quot;:0};" vertex="1" parent="1">
          <mxGeometry x="640" y="250" width="140" height="30" as="geometry" />
        </mxCell>
      </root>
    </mxGraphModel>
  </diagram>
</mxfile>
